<svg width="25" height="21" viewBox="0 0 25 21" fill="none" xmlns="http://www.w3.org/2000/svg">
<path d="M16.5955 2.26905C16.5477 2.52157 16.5238 2.7741 16.5238 3.02662C16.5238 5.29932 18.6994 7.13666 21.3771 7.13666C21.676 7.13666 21.9629 7.10737 22.2617 7.06697V15.2174C22.2617 18.6426 19.8709 20.6728 15.8065 20.6728H6.97371C2.90814 20.6728 0.517334 18.6426 0.517334 15.2174V7.74373C0.517334 4.30943 2.90814 2.26905 6.97371 2.26905H16.5955ZM16.8358 8.41038C16.5118 8.38008 16.1903 8.50129 15.9978 8.72351L13.1061 11.8851L9.79367 9.68309C9.59045 9.55178 9.35137 9.50027 9.11229 9.52148C8.8744 9.55178 8.65923 9.66188 8.51458 9.8235L4.97738 13.7133L4.90447 13.8043C4.70125 14.1265 4.79688 14.5406 5.1555 14.7638C5.32286 14.8547 5.50217 14.9153 5.70539 14.9153C5.98152 14.9254 6.24332 14.8032 6.41067 14.6123L9.41114 11.3487L12.818 13.5113L12.9256 13.5709C13.3082 13.7426 13.7863 13.6628 14.0613 13.3588L17.516 9.59219L17.4682 9.61239C17.6594 9.39017 17.6953 9.10734 17.5638 8.85482C17.4335 8.6023 17.1454 8.43059 16.8358 8.41038ZM21.5446 0.470795C23.1345 0.470795 24.4255 1.56169 24.4255 2.90511C24.4255 4.24852 23.1345 5.33942 21.5446 5.33942C19.9547 5.33942 18.6637 4.24852 18.6637 2.90511C18.6637 1.56169 19.9547 0.470795 21.5446 0.470795Z" fill="#801338"/>
</svg>
