<svg width="25" height="24" viewBox="0 0 25 24" fill="none" xmlns="http://www.w3.org/2000/svg">
<path d="M5.58459 3.5H19.5846V19.4656C19.5846 20.2959 18.6312 20.7645 17.9738 20.2574L16.643 19.2307C16.3082 18.9725 15.8471 18.9527 15.4914 19.1813L13.6661 20.3547C13.0073 20.7783 12.1619 20.7783 11.5031 20.3547L9.67779 19.1813C9.3221 18.9527 8.86104 18.9725 8.52623 19.2307L7.1954 20.2574C6.53797 20.7645 5.58459 20.2959 5.58459 19.4656V3.5Z" stroke="white" stroke-width="1.5"/>
<path d="M9.66077 9.5H12.6862" stroke="white" stroke-width="1.5" stroke-linecap="round" stroke-linejoin="round"/>
<path d="M3.60999 3.5H21.7625" stroke="white" stroke-width="1.5" stroke-linecap="round" stroke-linejoin="round"/>
<path d="M9.66077 13.5H12.6862" stroke="white" stroke-width="1.5" stroke-linecap="round" stroke-linejoin="round"/>
<path d="M15.7117 9.5H16.2159" stroke="white" stroke-width="1.5" stroke-linecap="round" stroke-linejoin="round"/>
<path d="M15.7117 13.5H16.2159" stroke="white" stroke-width="1.5" stroke-linecap="round" stroke-linejoin="round"/>
</svg>
