<svg width="25" height="24" viewBox="0 0 25 24" fill="none" xmlns="http://www.w3.org/2000/svg">
<path d="M9.39315 8.40419C9.39315 10.2843 10.9173 11.8084 12.7974 11.8084C14.6775 11.8084 16.2017 10.2843 16.2017 8.40419C16.2017 6.52408 14.6775 4.99994 12.7974 4.99994" stroke="white" stroke-width="1.5" stroke-linecap="round"/>
<path d="M6.83997 16.8594C6.83997 16.1271 7.30027 15.474 7.98983 15.2277V15.2277C11.0987 14.1174 14.4961 14.1174 17.605 15.2277V15.2277C18.2946 15.474 18.7549 16.1271 18.7549 16.8594V17.9789C18.7549 18.9895 17.8598 19.7658 16.8594 19.6229L16.5258 19.5753C14.0528 19.222 11.5421 19.222 9.06901 19.5753L8.73546 19.6229C7.73503 19.7658 6.83997 18.9895 6.83997 17.9789V16.8594Z" stroke="white" stroke-width="1.5"/>
<path d="M17.9038 11.9027C19.3811 11.9027 20.5786 10.7051 20.5786 9.2279C20.5786 7.75067 19.3811 6.55313 17.9038 6.55313" stroke="white" stroke-width="1.5" stroke-linecap="round"/>
<path d="M20.8333 18.005L21.0954 18.0424C21.8814 18.1547 22.5847 17.5448 22.5847 16.7508V15.8711C22.5847 15.2958 22.223 14.7826 21.6812 14.5891C21.1408 14.396 20.5892 14.2457 20.0315 14.1381" stroke="white" stroke-width="1.5" stroke-linecap="round"/>
<path d="M7.26535 11.9027C5.78811 11.9027 4.59058 10.7051 4.59058 9.2279C4.59058 7.75067 5.78811 6.55313 7.26535 6.55313" stroke="white" stroke-width="1.5" stroke-linecap="round"/>
<path d="M4.3359 18.005L4.07382 18.0424C3.28777 18.1547 2.5845 17.5448 2.5845 16.7508V15.8711C2.5845 15.2958 2.94617 14.7826 3.48797 14.5891C4.02842 14.396 4.57996 14.2457 5.1377 14.1381" stroke="white" stroke-width="1.5" stroke-linecap="round"/>
</svg>
