<svg width="63" height="61" viewBox="0 0 63 61" fill="none" xmlns="http://www.w3.org/2000/svg">
<path opacity="0.21" fill-rule="evenodd" clip-rule="evenodd" d="M0 30.118V37.236C0 49.9386 10.2975 60.236 23 60.236L31.5 60.236L40 60.236C52.7025 60.236 63 49.9386 63 37.236L63 30.118L63 23C63 10.2975 52.7025 0 40 0H31.5H23C10.2975 0 0 10.2974 0 23V30.118Z" fill="#8280FF"/>
<path opacity="0.587821" fill-rule="evenodd" clip-rule="evenodd" d="M21.7 23.4251C21.7 26.3822 24.2072 28.7794 27.3 28.7794C30.3928 28.7794 32.9 26.3822 32.9 23.4251C32.9 20.468 30.3928 18.0708 27.3 18.0708C24.2072 18.0708 21.7 20.468 21.7 23.4251ZM35.7 28.7795C35.7 30.9973 37.5804 32.7952 39.9 32.7952C42.2196 32.7952 44.1 30.9973 44.1 28.7795C44.1 26.5616 42.2196 24.7637 39.9 24.7637C37.5804 24.7637 35.7 26.5616 35.7 28.7795Z" fill="#8280FF"/>
<path fill-rule="evenodd" clip-rule="evenodd" d="M27.2767 31.4566C20.6667 31.4566 15.2435 34.7047 14.7009 41.0933C14.6713 41.4413 15.3674 42.1652 15.7185 42.1652H38.8454C39.8971 42.1652 39.9134 41.356 39.8971 41.0944C39.4868 34.5262 33.9797 31.4566 27.2767 31.4566ZM47.5383 42.1652L42.14 42.1652C42.14 39.1522 41.0988 36.3716 39.3417 34.1346C44.1108 34.1844 48.0049 36.4899 48.2979 41.3621C48.3097 41.5583 48.2979 42.1652 47.5383 42.1652Z" fill="#8280FF"/>
</svg>
