<svg width="286" height="105" viewBox="0 0 286 105" fill="none" xmlns="http://www.w3.org/2000/svg">
<path d="M9.42827 49H1.18963L13.7429 12.6364H23.6506L36.1861 49H27.9474L18.8388 20.946H18.5547L9.42827 49ZM8.91335 34.7067H28.3736V40.7081H8.91335V34.7067ZM49.701 49.4439C47.6295 49.4439 45.7533 48.9112 44.0724 47.8459C42.4034 46.7687 41.0777 45.1884 40.0952 43.1051C39.1245 41.0099 38.6392 38.4413 38.6392 35.3991C38.6392 32.2741 39.1423 29.6759 40.1484 27.6044C41.1546 25.5211 42.4922 23.9645 44.1612 22.9347C45.8421 21.893 47.6828 21.3722 49.6832 21.3722C51.2102 21.3722 52.4827 21.6326 53.5007 22.1534C54.5305 22.6624 55.3591 23.3016 55.9865 24.071C56.6257 24.8286 57.111 25.5743 57.4425 26.3082H57.6733V12.6364H65.2195V49H57.7621V44.6321H57.4425C57.0874 45.3897 56.5843 46.1413 55.9332 46.8871C55.294 47.621 54.4595 48.2306 53.4297 48.7159C52.4117 49.2012 51.1688 49.4439 49.701 49.4439ZM52.098 43.4247C53.3172 43.4247 54.3471 43.0933 55.1875 42.4304C56.0398 41.7557 56.6908 40.8146 57.1406 39.6072C57.6023 38.3999 57.8331 36.9853 57.8331 35.3636C57.8331 33.742 57.6082 32.3333 57.1584 31.1378C56.7086 29.9422 56.0575 29.0189 55.2053 28.3679C54.353 27.7169 53.3172 27.3913 52.098 27.3913C50.8551 27.3913 49.8075 27.7287 48.9553 28.4034C48.103 29.0781 47.4579 30.0133 47.0199 31.2088C46.5819 32.4044 46.3629 33.7893 46.3629 35.3636C46.3629 36.9498 46.5819 38.3525 47.0199 39.5717C47.4697 40.7791 48.1148 41.7261 48.9553 42.4126C49.8075 43.0874 50.8551 43.4247 52.098 43.4247ZM97.3645 21.7273L87.8297 49H79.307L69.7722 21.7273H77.7623L83.4263 41.2408H83.7104L89.3567 21.7273H97.3645ZM101.735 49V21.7273H109.299V49H101.735ZM105.535 18.2116C104.41 18.2116 103.446 17.8388 102.641 17.093C101.848 16.3355 101.451 15.4299 101.451 14.3764C101.451 13.3348 101.848 12.4411 102.641 11.6953C103.446 10.9377 104.41 10.5589 105.535 10.5589C106.66 10.5589 107.618 10.9377 108.411 11.6953C109.216 12.4411 109.619 13.3348 109.619 14.3764C109.619 15.4299 109.216 16.3355 108.411 17.093C107.618 17.8388 106.66 18.2116 105.535 18.2116ZM138.55 29.5043L131.625 29.9304C131.507 29.3385 131.252 28.8059 130.862 28.3324C130.471 27.8471 129.956 27.4624 129.317 27.1783C128.69 26.8823 127.938 26.7344 127.062 26.7344C125.89 26.7344 124.902 26.983 124.097 27.4801C123.292 27.9654 122.89 28.6165 122.89 29.4332C122.89 30.0843 123.15 30.6347 123.671 31.0845C124.192 31.5343 125.085 31.8954 126.352 32.1676L131.288 33.1619C133.94 33.7064 135.916 34.5824 137.218 35.7898C138.52 36.9972 139.172 38.5833 139.172 40.5483C139.172 42.3357 138.645 43.9041 137.591 45.2536C136.55 46.603 135.117 47.6565 133.294 48.4141C131.483 49.1598 129.394 49.5327 127.027 49.5327C123.416 49.5327 120.54 48.781 118.397 47.2777C116.267 45.7625 115.018 43.7029 114.651 41.0987L122.091 40.7081C122.315 41.8089 122.86 42.6494 123.724 43.2294C124.588 43.7976 125.695 44.0817 127.044 44.0817C128.37 44.0817 129.435 43.8272 130.24 43.3182C131.057 42.7973 131.471 42.1286 131.483 41.3118C131.471 40.6252 131.181 40.063 130.613 39.625C130.045 39.1752 129.169 38.8319 127.985 38.5952L123.262 37.6541C120.599 37.1214 118.616 36.1982 117.314 34.8842C116.024 33.5703 115.379 31.8954 115.379 29.8594C115.379 28.1075 115.852 26.5982 116.799 25.3317C117.758 24.0651 119.102 23.0885 120.83 22.402C122.57 21.7154 124.606 21.3722 126.938 21.3722C130.382 21.3722 133.093 22.1001 135.07 23.5561C137.059 25.0121 138.219 26.9948 138.55 29.5043ZM144.434 49V21.7273H151.998V49H144.434ZM148.234 18.2116C147.11 18.2116 146.145 17.8388 145.34 17.093C144.547 16.3355 144.15 15.4299 144.15 14.3764C144.15 13.3348 144.547 12.4411 145.34 11.6953C146.145 10.9377 147.11 10.5589 148.234 10.5589C149.359 10.5589 150.318 10.9377 151.111 11.6953C151.916 12.4411 152.318 13.3348 152.318 14.3764C152.318 15.4299 151.916 16.3355 151.111 17.093C150.318 17.8388 149.359 18.2116 148.234 18.2116ZM166.121 33.233V49H158.558V21.7273H165.766V26.5391H166.086C166.69 24.9529 167.702 23.6982 169.122 22.7749C170.543 21.8397 172.265 21.3722 174.289 21.3722C176.183 21.3722 177.834 21.7865 179.243 22.6151C180.652 23.4437 181.746 24.6274 182.528 26.1662C183.309 27.6932 183.7 29.5161 183.7 31.6349V49H176.136V32.9844C176.147 31.3153 175.721 30.0133 174.857 29.0781C173.993 28.1312 172.804 27.6577 171.288 27.6577C170.27 27.6577 169.371 27.8767 168.589 28.3146C167.82 28.7526 167.216 29.3918 166.778 30.2322C166.352 31.0608 166.133 32.0611 166.121 33.233ZM202.448 59.7955C199.998 59.7955 197.897 59.4581 196.145 58.7834C194.405 58.1205 193.02 57.215 191.99 56.0668C190.96 54.9186 190.291 53.6283 189.983 52.196L196.979 51.255C197.192 51.7995 197.53 52.3085 197.991 52.782C198.453 53.2554 199.063 53.6342 199.82 53.9183C200.59 54.2143 201.525 54.3622 202.626 54.3622C204.271 54.3622 205.626 53.9598 206.692 53.1548C207.769 52.3617 208.307 51.0301 208.307 49.1598V44.1705H207.988C207.656 44.928 207.159 45.6442 206.496 46.3189C205.833 46.9936 204.981 47.544 203.939 47.9702C202.898 48.3963 201.655 48.6094 200.211 48.6094C198.163 48.6094 196.299 48.1359 194.618 47.1889C192.949 46.2301 191.617 44.7682 190.623 42.8033C189.64 40.8265 189.149 38.3288 189.149 35.3104C189.149 32.2209 189.652 29.6404 190.658 27.5689C191.664 25.4974 193.002 23.9467 194.671 22.9169C196.352 21.8871 198.193 21.3722 200.193 21.3722C201.72 21.3722 202.998 21.6326 204.028 22.1534C205.058 22.6624 205.887 23.3016 206.514 24.071C207.153 24.8286 207.644 25.5743 207.988 26.3082H208.272V21.7273H215.782V49.2663C215.782 51.5864 215.214 53.5277 214.078 55.0902C212.942 56.6527 211.367 57.8246 209.355 58.6058C207.354 59.3989 205.052 59.7955 202.448 59.7955ZM202.608 42.9276C203.827 42.9276 204.857 42.6257 205.697 42.022C206.55 41.4065 207.201 40.5305 207.65 39.3942C208.112 38.246 208.343 36.8729 208.343 35.2749C208.343 33.6768 208.118 32.2919 207.668 31.12C207.218 29.9363 206.567 29.0189 205.715 28.3679C204.863 27.7169 203.827 27.3913 202.608 27.3913C201.365 27.3913 200.317 27.7287 199.465 28.4034C198.613 29.0663 197.968 29.9896 197.53 31.1733C197.092 32.357 196.873 33.7242 196.873 35.2749C196.873 36.8492 197.092 38.2105 197.53 39.3587C197.979 40.495 198.625 41.3769 199.465 42.0043C200.317 42.6198 201.365 42.9276 202.608 42.9276Z" fill="#801338"/>
<path d="M78.245 60.3672H70.468C70.326 59.361 70.036 58.4673 69.598 57.6861C69.16 56.893 68.5978 56.2183 67.9112 55.6619C67.2247 55.1056 66.4316 54.6794 65.532 54.3835C64.6442 54.0876 63.6795 53.9396 62.6378 53.9396C60.7557 53.9396 59.1162 54.4072 57.7195 55.3423C56.3227 56.2656 55.2396 57.6151 54.4702 59.3906C53.7008 61.1544 53.3161 63.2969 53.3161 65.8182C53.3161 68.4105 53.7008 70.5885 54.4702 72.3523C55.2514 74.116 56.3404 75.4477 57.7372 76.3473C59.134 77.2469 60.7498 77.6967 62.5845 77.6967C63.6143 77.6967 64.5672 77.5606 65.4432 77.2884C66.331 77.0161 67.1181 76.6196 67.8047 76.0987C68.4912 75.5661 69.0594 74.9209 69.5092 74.1634C69.9709 73.4058 70.2905 72.5417 70.468 71.571L78.245 71.6065C78.0438 73.2756 77.5407 74.8854 76.7358 76.4361C75.9427 77.9749 74.8714 79.3539 73.522 80.5732C72.1844 81.7805 70.5864 82.7393 68.728 83.4496C66.8814 84.148 64.7921 84.4972 62.4602 84.4972C59.2169 84.4972 56.3168 83.7633 53.7599 82.2955C51.215 80.8277 49.2027 78.7029 47.723 75.9212C46.2552 73.1394 45.5213 69.7718 45.5213 65.8182C45.5213 61.8527 46.267 58.4792 47.7585 55.6974C49.25 52.9157 51.2741 50.7969 53.831 49.3409C56.3878 47.8731 59.2642 47.1392 62.4602 47.1392C64.5672 47.1392 66.5204 47.4351 68.3196 48.027C70.1307 48.6188 71.7346 49.483 73.1314 50.6193C74.5282 51.7438 75.6645 53.1229 76.5405 54.7564C77.4283 56.3899 77.9964 58.2602 78.245 60.3672ZM91.68 68.233V84H84.1161V47.6364H91.467V61.5391H91.7866C92.4021 59.9292 93.3964 58.6686 94.7695 57.7571C96.1426 56.8338 97.8649 56.3722 99.9364 56.3722C101.83 56.3722 103.482 56.7865 104.89 57.6151C106.311 58.4318 107.412 59.6096 108.193 61.1484C108.986 62.6754 109.377 64.5043 109.365 66.6349V84H101.801V67.9844C101.813 66.3035 101.386 64.9955 100.522 64.0604C99.6701 63.1252 98.4746 62.6577 96.9357 62.6577C95.9059 62.6577 94.9944 62.8767 94.2013 63.3146C93.4201 63.7526 92.8046 64.3918 92.3548 65.2322C91.9168 66.0608 91.6919 67.0611 91.68 68.233ZM128.246 84.5327C125.441 84.5327 123.026 83.9645 121.002 82.8281C118.99 81.6799 117.439 80.0582 116.35 77.9631C115.261 75.8561 114.716 73.3643 114.716 70.4879C114.716 67.6825 115.261 65.2204 116.35 63.1016C117.439 60.9827 118.972 59.3314 120.949 58.1477C122.937 56.964 125.269 56.3722 127.944 56.3722C129.744 56.3722 131.419 56.6622 132.969 57.2422C134.532 57.8104 135.893 58.6686 137.053 59.8168C138.225 60.965 139.136 62.4091 139.787 64.1491C140.439 65.8774 140.764 67.9015 140.764 70.2216V72.299H117.735V67.6115H133.644C133.644 66.5225 133.407 65.5578 132.934 64.7173C132.46 63.8769 131.803 63.2199 130.963 62.7464C130.134 62.2611 129.17 62.0185 128.069 62.0185C126.921 62.0185 125.903 62.2848 125.015 62.8175C124.139 63.3383 123.452 64.0426 122.955 64.9304C122.458 65.8063 122.203 66.7829 122.192 67.8601V72.3168C122.192 73.6662 122.44 74.8321 122.937 75.8146C123.446 76.7971 124.162 77.5547 125.086 78.0874C126.009 78.62 127.104 78.8864 128.371 78.8864C129.211 78.8864 129.98 78.768 130.679 78.5312C131.377 78.2945 131.975 77.9394 132.472 77.4659C132.969 76.9924 133.348 76.4124 133.608 75.7259L140.604 76.1875C140.249 77.8684 139.521 79.3362 138.42 80.5909C137.331 81.8338 135.923 82.8045 134.194 83.5028C132.478 84.1894 130.495 84.5327 128.246 84.5327ZM158.523 84.5327C155.729 84.5327 153.326 83.9408 151.314 82.7571C149.313 81.5616 147.774 79.9044 146.697 77.7855C145.632 75.6667 145.099 73.2282 145.099 70.4702C145.099 67.6766 145.638 65.2263 146.715 63.1193C147.804 61.0005 149.349 59.3492 151.349 58.1655C153.35 56.9699 155.729 56.3722 158.487 56.3722C160.866 56.3722 162.95 56.8042 164.737 57.6683C166.524 58.5324 167.939 59.7457 168.981 61.3082C170.022 62.8707 170.596 64.7055 170.703 66.8125H163.565C163.364 65.4512 162.831 64.3563 161.967 63.5277C161.115 62.6873 159.996 62.267 158.611 62.267C157.439 62.267 156.416 62.5866 155.54 63.2259C154.675 63.8532 154.001 64.7706 153.515 65.978C153.03 67.1854 152.787 68.6473 152.787 70.3636C152.787 72.1037 153.024 73.5833 153.498 74.8026C153.983 76.0218 154.664 76.951 155.54 77.5902C156.416 78.2294 157.439 78.549 158.611 78.549C159.475 78.549 160.251 78.3714 160.937 78.0163C161.636 77.6612 162.21 77.1463 162.66 76.4716C163.121 75.785 163.423 74.9624 163.565 74.0036H170.703C170.585 76.0869 170.016 77.9216 168.998 79.5078C167.992 81.0821 166.601 82.3132 164.826 83.201C163.05 84.0888 160.949 84.5327 158.523 84.5327ZM182.9 76.152L182.917 67.0788H184.018L192.754 56.7273H201.436L189.7 70.4347H187.907L182.9 76.152ZM176.046 84V47.6364H183.61V84H176.046ZM193.091 84L185.066 72.1214L190.108 66.777L201.951 84H193.091ZM213.211 47.6364V84H205.647V47.6364H213.211ZM219.77 84V56.7273H227.334V84H219.77ZM223.57 53.2116C222.446 53.2116 221.481 52.8388 220.676 52.093C219.883 51.3355 219.486 50.4299 219.486 49.3764C219.486 48.3348 219.883 47.4411 220.676 46.6953C221.481 45.9377 222.446 45.5589 223.57 45.5589C224.695 45.5589 225.653 45.9377 226.447 46.6953C227.251 47.4411 227.654 48.3348 227.654 49.3764C227.654 50.4299 227.251 51.3355 226.447 52.093C225.653 52.8388 224.695 53.2116 223.57 53.2116ZM256.585 64.5043L249.661 64.9304C249.542 64.3385 249.288 63.8059 248.897 63.3324C248.506 62.8471 247.991 62.4624 247.352 62.1783C246.725 61.8823 245.973 61.7344 245.097 61.7344C243.925 61.7344 242.937 61.983 242.132 62.4801C241.327 62.9654 240.925 63.6165 240.925 64.4332C240.925 65.0843 241.185 65.6347 241.706 66.0845C242.227 66.5343 243.121 66.8954 244.387 67.1676L249.323 68.1619C251.975 68.7064 253.951 69.5824 255.254 70.7898C256.556 71.9972 257.207 73.5833 257.207 75.5483C257.207 77.3357 256.68 78.9041 255.626 80.2536C254.585 81.603 253.152 82.6565 251.33 83.4141C249.518 84.1598 247.429 84.5327 245.062 84.5327C241.451 84.5327 238.575 83.781 236.433 82.2777C234.302 80.7625 233.053 78.7029 232.686 76.0987L240.126 75.7081C240.351 76.8089 240.895 77.6494 241.759 78.2294C242.623 78.7976 243.73 79.0817 245.08 79.0817C246.405 79.0817 247.471 78.8272 248.276 78.3182C249.092 77.7973 249.507 77.1286 249.518 76.3118C249.507 75.6252 249.217 75.063 248.648 74.625C248.08 74.1752 247.204 73.8319 246.021 73.5952L241.298 72.6541C238.634 72.1214 236.652 71.1982 235.349 69.8842C234.059 68.5703 233.414 66.8954 233.414 64.8594C233.414 63.1075 233.888 61.5982 234.835 60.3317C235.793 59.0651 237.137 58.0885 238.865 57.402C240.605 56.7154 242.641 56.3722 244.973 56.3722C248.418 56.3722 251.128 57.1001 253.105 58.5561C255.094 60.0121 256.254 61.9948 256.585 64.5043ZM276.976 56.7273V62.4091H260.552V56.7273H276.976ZM264.281 50.1932H271.845V75.6193C271.845 76.3177 271.951 76.8622 272.164 77.2528C272.377 77.6316 272.673 77.898 273.052 78.0518C273.443 78.2057 273.892 78.2827 274.401 78.2827C274.757 78.2827 275.112 78.2531 275.467 78.1939C275.822 78.1229 276.094 78.0696 276.284 78.0341L277.473 83.6626C277.094 83.781 276.562 83.9171 275.875 84.071C275.189 84.2367 274.354 84.3374 273.372 84.3729C271.549 84.4439 269.951 84.2012 268.578 83.6449C267.216 83.0885 266.157 82.2244 265.399 81.0526C264.642 79.8807 264.269 78.401 264.281 76.6136V50.1932Z" fill="#801338"/>
<path d="M222.006 3.80105L222.001 0.505598L236.554 5.50413L236.56 9.46719L222.023 14.5042L222.017 11.2087L233.233 7.54768L233.233 7.43404L222.006 3.80105ZM227.723 3.58613L227.735 11.3702L225.335 11.374L225.322 3.58989L227.723 3.58613ZM236.59 28.5983L222.045 28.621L222.041 25.9648L231.186 19.6224L231.185 19.5158L222.031 19.5301L222.026 16.4549L236.571 16.4321L236.575 19.131L227.437 25.4237L227.438 25.5515L236.585 25.5372L236.59 28.5983ZM222.057 36.5181L222.049 31.3619L236.594 31.3391L236.603 36.538C236.605 38.001 236.316 39.261 235.735 40.3177C235.159 41.3745 234.329 42.1878 233.246 42.7577C232.162 43.3323 230.866 43.6208 229.355 43.6232C227.84 43.6256 226.538 43.3411 225.448 42.7699C224.358 42.2035 223.521 41.388 222.937 40.3236C222.353 39.2639 222.059 37.9954 222.057 36.5181ZM224.689 34.433L224.692 36.3862C224.693 37.2952 224.855 38.0597 225.178 38.6794C225.506 39.3039 226.011 39.7719 226.693 40.0833C227.38 40.3995 228.266 40.5567 229.35 40.555C230.425 40.5533 231.303 40.3933 231.985 40.075C232.666 39.7615 233.167 39.2943 233.488 38.6735C233.809 38.0528 233.969 37.2878 233.967 36.3787L233.964 34.4185L224.689 34.433Z" fill="black"/>
</svg>
