<svg width="25" height="24" viewBox="0 0 25 24" fill="none" xmlns="http://www.w3.org/2000/svg">
<path d="M9.39312 8.40419C9.39312 10.2843 10.9173 11.8084 12.7974 11.8084C14.6775 11.8084 16.2016 10.2843 16.2016 8.40419C16.2016 6.52408 14.6775 4.99994 12.7974 4.99994" stroke="#801338" stroke-width="1.5" stroke-linecap="round"/>
<path d="M6.83994 16.8594C6.83994 16.1271 7.30024 15.474 7.9898 15.2277V15.2277C11.0987 14.1174 14.4961 14.1174 17.605 15.2277V15.2277C18.2945 15.474 18.7548 16.1271 18.7548 16.8594V17.9789C18.7548 18.9895 17.8598 19.7658 16.8593 19.6229L16.5258 19.5753C14.0527 19.222 11.542 19.222 9.06898 19.5753L8.73543 19.6229C7.735 19.7658 6.83994 18.9895 6.83994 17.9789V16.8594Z" stroke="#801338" stroke-width="1.5"/>
<path d="M17.9038 11.9027C19.381 11.9027 20.5786 10.7051 20.5786 9.2279C20.5786 7.75067 19.381 6.55313 17.9038 6.55313" stroke="#801338" stroke-width="1.5" stroke-linecap="round"/>
<path d="M20.8332 18.005L21.0953 18.0424C21.8814 18.1547 22.5846 17.5448 22.5846 16.7508V15.8711C22.5846 15.2958 22.223 14.7826 21.6812 14.5891C21.1407 14.396 20.5892 14.2457 20.0314 14.1381" stroke="#801338" stroke-width="1.5" stroke-linecap="round"/>
<path d="M7.26547 11.9027C5.78823 11.9027 4.5907 10.7051 4.5907 9.2279C4.5907 7.75067 5.78823 6.55313 7.26547 6.55313" stroke="#801338" stroke-width="1.5" stroke-linecap="round"/>
<path d="M4.33602 18.005L4.07395 18.0424C3.28789 18.1547 2.58463 17.5448 2.58463 16.7508V15.8711C2.58463 15.2958 2.94629 14.7826 3.48809 14.5891C4.02854 14.396 4.58009 14.2457 5.13782 14.1381" stroke="#801338" stroke-width="1.5" stroke-linecap="round"/>
</svg>
