<svg width="25" height="24" viewBox="0 0 25 24" fill="none" xmlns="http://www.w3.org/2000/svg">
<path d="M5.58463 3.5H19.5846V19.4656C19.5846 20.2959 18.6312 20.7645 17.9738 20.2574L16.643 19.2307C16.3082 18.9725 15.8471 18.9527 15.4914 19.1813L13.6661 20.3547C13.0073 20.7783 12.1619 20.7783 11.5031 20.3547L9.67782 19.1813C9.32213 18.9527 8.86107 18.9725 8.52626 19.2307L7.19543 20.2574C6.538 20.7645 5.58463 20.2959 5.58463 19.4656V3.5Z" stroke="#801338" stroke-width="1.5"/>
<path d="M9.66089 9.5H12.6863" stroke="#801338" stroke-width="1.5" stroke-linecap="round" stroke-linejoin="round"/>
<path d="M3.61005 3.5H21.7626" stroke="#801338" stroke-width="1.5" stroke-linecap="round" stroke-linejoin="round"/>
<path d="M9.66089 13.5H12.6863" stroke="#801338" stroke-width="1.5" stroke-linecap="round" stroke-linejoin="round"/>
<path d="M15.7117 9.5H16.216" stroke="#801338" stroke-width="1.5" stroke-linecap="round" stroke-linejoin="round"/>
<path d="M15.7117 13.5H16.216" stroke="#801338" stroke-width="1.5" stroke-linecap="round" stroke-linejoin="round"/>
</svg>
