<svg width="25" height="21" viewBox="0 0 25 21" fill="none" xmlns="http://www.w3.org/2000/svg">
<path d="M16.5955 2.26905C16.5476 2.52157 16.5237 2.7741 16.5237 3.02662C16.5237 5.29932 18.6994 7.13666 21.3771 7.13666C21.6759 7.13666 21.9628 7.10737 22.2617 7.06697V15.2174C22.2617 18.6426 19.8709 20.6728 15.8065 20.6728H6.97365C2.90808 20.6728 0.517273 18.6426 0.517273 15.2174V7.74373C0.517273 4.30943 2.90808 2.26905 6.97365 2.26905H16.5955ZM16.8357 8.41038C16.5118 8.38008 16.1902 8.50129 15.9977 8.72351L13.1061 11.8851L9.7936 9.68309C9.59039 9.55178 9.35131 9.50027 9.11222 9.52148C8.87434 9.55178 8.65917 9.66188 8.51452 9.8235L4.97732 13.7133L4.9044 13.8043C4.70119 14.1265 4.79682 14.5406 5.15544 14.7638C5.3228 14.8547 5.50211 14.9153 5.70532 14.9153C5.98146 14.9254 6.24326 14.8032 6.41061 14.6123L9.41108 11.3487L12.818 13.5113L12.9256 13.5709C13.3081 13.7426 13.7863 13.6628 14.0612 13.3588L17.5159 9.59219L17.4681 9.61239C17.6594 9.39017 17.6952 9.10734 17.5637 8.85482C17.4334 8.6023 17.1453 8.43059 16.8357 8.41038ZM21.5445 0.470795C23.1344 0.470795 24.4255 1.56169 24.4255 2.90511C24.4255 4.24852 23.1344 5.33942 21.5445 5.33942C19.9547 5.33942 18.6636 4.24852 18.6636 2.90511C18.6636 1.56169 19.9547 0.470795 21.5445 0.470795Z" fill="white"/>
</svg>
